{"title":"Fitzcarraldo (1982) - 720p x265 HEVC - GER ENG AUDIO (ENG SUBS)","uid":14691552,"size":2717280360,"categoryP":"video","categoryS":"hd___movies","magnet":"?xt=urn:btih:d1caf09d676d116bfa299f919912c40bd818a808&amp;dn=Fitzcarraldo+%281982%29+-+720p+x265+HEVC+-+GER+ENG+AUDIO+%28ENG+SUBS%29&amp;tr=udp%3A%2F%2Ftracker.leechers-paradise.org%3A6969&amp;tr=udp%3A%2F%2Fzer0day.ch%3A1337&amp;tr=udp%3A%2F%2Fopen.demonii.com%3A1337&amp;tr=udp%3A%2F%2Ftracker.coppersurfer.tk%3A6969&amp;tr=udp%3A%2F%2Fexodus.desync.com%3A6969","seeders":9,"leechers":3,"uploader":"BRSHNKV","files":2,"time":1464206619,"description":"The story of Brian Sweeney Fitzgerald, an extremely determined man who intends to build an opera house in the middle of a jungle.\r\n\r\nTechnical:\r\n\r\nFormat : MPEG-4\r\nFormat profile : Base Media / Version 2\r\nCodec ID : mp42\r\nFile size : 2.53 GiB\r\nDuration : 2h 37mn\r\nOverall bit rate mode : Variable\r\nOverall bit rate : 2 305 Kbps\r\nEncoded date : UTC 2016-05-22 05:58:37\r\nTagged date : UTC 2016-05-22 05:58:37\r\nWriting application : HandBrake 20160211184813-ffd8cb1-master 2016021301\r\n\r\nVideo\r\nID : 1\r\nFormat : HEVC\r\nFormat/Info : High Efficiency Video Coding\r\nFormat profile : Main   @Main\r\nCodec ID : hev1\r\nCodec ID/Info : High Efficiency Video Coding\r\nDuration : 2h 37mn\r\nBit rate : 2 001 Kbps\r\nWidth : 1 280 pixels\r\nHeight : 688 pixels\r\nDisplay aspect ratio : 1.85:1\r\nFrame rate mode : Variable\r\nFrame rate : 23.976 fps\r\nMinimum frame rate : 23.974 fps\r\nMaximum frame rate : 23.981 fps\r\nColor space : YUV\r\nChroma subsampling : 4:2:0\r\nBit depth : 10 bits\r\nBits/(Pixel*Frame) : 0.095\r\nStream size : 2.20 GiB (87%)\r\nWriting library : x265 1.9:[Mac OS X][clang 7.0.2][64 bit] 10bit\r\nEncoding settings : wpp / ctu=64 / min-cu-size=8 / max-tu-size=32 / tu-intra-depth=1 / tu-inter-depth=1 / me=1 / subme=2 / merange=57 / no-rect / no-amp / max-merge=2 / temporal-mvp / no-early-skip / rdpenalty=0 / no-tskip / no-tskip-fast / strong-intra-smoothing / no-lossless / no-cu-lossless / no-constrained-intra / no-fast-intra / open-gop / no-temporal-layers / interlace=0 / keyint=240 / min-keyint=24 / scenecut=40 / rc-lookahead=20 / lookahead-slices=0 / bframes=4 / bframe-bias=0 / b-adapt=2 / ref=3 / limit-refs=3 / no-limit-modes / weightp / no-weightb / aq-mode=1 / qg-size=32 / aq-strength=1.00 / cbqpoffs=0 / crqpoffs=0 / rd=3 / psy-rd=2.00 / rdoq-level=0 / psy-rdoq=0.00 / signhide / deblock / sao / no-sao-non-deblock / b-pyramid / cutree / no-intra-refresh / rc=2 / pass / bitrate=2000 / qcomp=0.60 / qpmin=0 / qpmax=51 / qpstep=4 / cplxblur=20.0 / qblur=0.5 / ipratio=1.40 / pbratio=1.30\r\nEncoded date : UTC 2016-05-22 05:58:37\r\nTagged date : UTC 2016-05-22 05:58:37\r\nColor range : Limited\r\nColor primaries : BT.709\r\nTransfer characteristics : BT.709\r\nMatrix coefficients : BT.709\r\n\r\nAudio #1\r\nID : 2\r\nFormat : AAC\r\nFormat/Info : Advanced Audio Codec\r\nFormat profile : LC\r\nCodec ID : 40\r\nDuration : 2h 37mn\r\nBit rate mode : Variable\r\nBit rate : 130 Kbps\r\nChannel(s) : 2 channels\r\nChannel positions : Front: L R\r\nSampling rate : 48.0 KHz\r\nCompression mode : Lossy\r\nStream size : 146 MiB (6%)\r\nTitle : Stereo / Stereo\r\nLanguage : English\r\nEncoded date : UTC 2016-05-22 05:58:37\r\nTagged date : UTC 2016-05-22 05:58:37\r\n\r\nAudio #2\r\nID : 3\r\nFormat : AAC\r\nFormat/Info : Advanced Audio Codec\r\nFormat profile : LC\r\nCodec ID : 40\r\nDuration : 2h 37mn\r\nBit rate mode : Variable\r\nBit rate : 164 Kbps\r\nChannel(s) : 2 channels\r\nChannel positions : Front: L R\r\nSampling rate : 48.0 KHz\r\nCompression mode : Lossy\r\nStream size : 185 MiB (7%)\r\nTitle : Stereo / Stereo\r\nLanguage : German\r\nEncoded date : UTC 2016-05-22 05:58:37\r\nTagged date : UTC 2016-05-22 05:58:37\r\n\r\nText\r\nID : 4\r\nFormat : Timed Text\r\nMuxing mode : sbtl\r\nCodec ID : tx3g\r\nDuration : 2h 31mn\r\nBit rate mode : Variable\r\nBit rate : 30 bps\r\nStream size : 32.7 KiB (0%)\r\nLanguage : English\r\nEncoded date : UTC 2016-05-22 05:58:37\r\nTagged date : UTC 2016-05-22 05:58:37\r\n\r\nMenu\r\nID : 5\r\nCodec ID : text\r\nDuration : 2h 37mn\r\nLanguage : English\r\nEncoded date : UTC 2016-05-22 05:58:37\r\nTagged date : UTC 2016-05-22 05:58:37\r\nBit rate mode : CBR\r\n00:00:00.000 : 00:00:00.000\r\n00:10:23.289 : 00:10:13.488\r\n00:19:18.199 : 00:19:18.115\r\n00:25:50.340 : 00:25:50.257\r\n00:30:44.342 : 00:30:44.259\r\n00:37:48.308 : 00:37:48.224\r\n00:48:01.378 : 00:48:01.295\r\n00:55:50.138 : 00:55:50.055\r\n00:59:36.573 : 00:59:28.857\r\n01:04:10.221 : 01:04:00.128\r\n01:08:49.584 : 01:08:49.500\r\n01:21:29.426 : 01:21:22.336\r\n01:33:54.546 : 01:33:44.452\r\n01:39:39.307 : 01:39:39.223\r\n01:54:50.550 : 01:54:40.457\r\n02:00:44.737 : 02:00:44.654\r\n02:10:06.590 : 02:10:06.507\r\n02:19:03.919 : 02:19:03.794","torrent":{"xt":"urn:btih:d1caf09d676d116bfa299f919912c40bd818a808","amp;dn":"Fitzcarraldo+%281982%29+-+720p+x265+HEVC+-+GER+ENG+AUDIO+%28ENG+SUBS%29","amp;tr":["udp%3A%2F%2Ftracker.leechers-paradise.org%3A6969","udp%3A%2F%2Fzer0day.ch%3A1337","udp%3A%2F%2Fopen.demonii.com%3A1337","udp%3A%2F%2Ftracker.coppersurfer.tk%3A6969","udp%3A%2F%2Fexodus.desync.com%3A6969"],"infoHash":"d1caf09d676d116bfa299f919912c40bd818a808","infoHashBuffer":{"type":"Buffer","data":[209,202,240,157,103,109,17,107,250,41,159,145,153,18,196,11,216,24,168,8]},"announce":[],"urlList":[]}}